# xmcd CD database file
# Generated: Thu Apr 24 22:44:34 2003 by KSCD
# 
# Track frame offsets:
#       182
#       21915
#       37815
#       63167
#       80640
#       97115
#       114782
#       137300
#       155580
#       165415
#       184627
#       209422
#       232512
#       253475
#
# Disc length: 3837 seconds
#
# Revision: 4
# Processed by: cddbd v1.4PL0 Copyright (c) Steve Scherf et al.
# Submitted via: Kscd 1.3.3
#
DISCID=a90efb0e
DTITLE=Big Sugar - 500 pounds
DYEAR=1900
DGENRE=
TTITLE0=ride like hell
TTITLE1=I'm a ram
TTITLE2=wild ox moan
TTITLE3=a night in tunisia
TTITLE4=all over now
TTITLE5=standing around crying
TTITLE6=dear mr. fantasy
TTITLE7=how many times
TTITLE8=aaa aardvark motel
TTITLE9=deliver me
TTITLE10=still waiting
TTITLE11=sugar in my coffee
TTITLE12=goodbye train
TTITLE13=leadbelly (dub mix)
EXTD=
EXTT0=
EXTT1=
EXTT2=
EXTT3=
EXTT4=
EXTT5=
EXTT6=
EXTT7=
EXTT8=
EXTT9=
EXTT10=
EXTT11=
EXTT12=
EXTT13=
PLAYORDER=
